HIERARCHY
ROOT joint_Root
{
	OFFSET 0.0 0.0 0.0
	CHANNELS 6 Xposition Yposition Zposition Zrotation Xrotation Yrotation 
	JOINT Hips
	{
		OFFSET -0.726466 93.3139 -2.00062
		CHANNELS 6 Xposition Yposition Zposition Zrotation Xrotation Yrotation 
		JOINT Spine
		{
			OFFSET 15.7357 0.0 0.0
			CHANNELS 6 Xposition Yposition Zposition Zrotation Xrotation Yrotation 
			JOINT Chest
			{
				OFFSET 8.98455 -0.406207 0.0
				CHANNELS 6 Xposition Yposition Zposition Zrotation Xrotation Yrotation 
				JOINT Neck
				{
					OFFSET 16.3773 0.0 0.0
					CHANNELS 6 Xposition Yposition Zposition Zrotation Xrotation Yrotation 
					JOINT Head
					{
						OFFSET 6.45672 0.0 0.0
						CHANNELS 6 Xposition Yposition Zposition Zrotation Xrotation Yrotation 
						End Site
						{
							OFFSET 0.0 0.0 0.0
						}
					}
				}
				JOINT Shoulder_L
				{
					OFFSET 12.9942 -0.242716 4.98039
					CHANNELS 6 Xposition Yposition Zposition Zrotation Xrotation Yrotation 
					JOINT UpperArm_L
					{
						OFFSET 5.34809 0.0 0.0
						CHANNELS 6 Xposition Yposition Zposition Zrotation Xrotation Yrotation 
						JOINT LowerArm_L
						{
							OFFSET 24.3286 1.87007e-05 0.0
							CHANNELS 6 Xposition Yposition Zposition Zrotation Xrotation Yrotation 
							JOINT Hand_L
							{
								OFFSET 22.2916 0.0 0.0
								CHANNELS 6 Xposition Yposition Zposition Zrotation Xrotation Yrotation 
								End Site
								{
									OFFSET 0.0 0.0 0.0
								}
							}
						}
					}
				}
				JOINT Shoulder_R
				{
					OFFSET 12.9945 -0.242716 -4.98039
					CHANNELS 6 Xposition Yposition Zposition Zrotation Xrotation Yrotation 
					JOINT UpperArm_R
					{
						OFFSET -5.34813 0.0 0.0
						CHANNELS 6 Xposition Yposition Zposition Zrotation Xrotation Yrotation 
						JOINT LowerArm_R
						{
							OFFSET -24.3289 0.000322201 0.0
							CHANNELS 6 Xposition Yposition Zposition Zrotation Xrotation Yrotation 
							JOINT Hand_R
							{
								OFFSET -22.2915 -0.000108084 0.0
								CHANNELS 6 Xposition Yposition Zposition Zrotation Xrotation Yrotation 
								End Site
								{
									OFFSET 0.0 0.0 0.0
								}
							}
						}
					}
				}
			}
		}
		JOINT UpperLeg_L
		{
			OFFSET -2.19248 -6.46944 0.0
			CHANNELS 6 Xposition Yposition Zposition Zrotation Xrotation Yrotation 
			JOINT LowerLeg_L
			{
				OFFSET 39.0811 0.0 -1.23785e-05
				CHANNELS 6 Xposition Yposition Zposition Zrotation Xrotation Yrotation 
				JOINT Foot_L
				{
					OFFSET 40.9854 0.0 -1.26872e-05
					CHANNELS 6 Xposition Yposition Zposition Zrotation Xrotation Yrotation 
					JOINT Toes_L
					{
						OFFSET 11.7543 0.0 0.0
						CHANNELS 6 Xposition Yposition Zposition Zrotation Xrotation Yrotation 
						End Site
						{
							OFFSET 0.0 0.0 0.0
						}
					}
				}
			}
		}
		JOINT UpperLeg_R
		{
			OFFSET -2.19251 6.46944 0.0
			CHANNELS 6 Xposition Yposition Zposition Zrotation Xrotation Yrotation 
			JOINT LowerLeg_R
			{
				OFFSET -39.0811 -0.00228153 -0.0401928
				CHANNELS 6 Xposition Yposition Zposition Zrotation Xrotation Yrotation 
				JOINT Foot_R
				{
					OFFSET -40.9854 0.0 0.0
					CHANNELS 6 Xposition Yposition Zposition Zrotation Xrotation Yrotation 
					JOINT Toes_R
					{
						OFFSET -11.7543 0.0 0.0
						CHANNELS 6 Xposition Yposition Zposition Zrotation Xrotation Yrotation 
						End Site
						{
							OFFSET 0.0 0.0 0.0
						}
					}
				}
			}
		}
	}
}
MOTION
Frames:	7
Frame Time:	0.0333333
0.000000 0.000000 0.000000 0.000000 0.000000 -0.000000 -0.672491 92.052100 0.918095 88.148600 -0.751575 3.844870 15.735700 0.000005 -0.000001 83.545100 85.473200 -83.020900 8.984550 -0.406207 -0.000000 1.235450 -1.047220 1.058840 16.377300 -0.000001 -0.000001 2.233690 -2.435390 0.694174 6.456720 -0.000001 -0.000000 4.926700 -2.532230 -1.056120 12.994200 -0.242716 4.980390 -90.211400 0.682464 -72.787700 5.348090 -0.000007 -0.000001 -68.999400 36.358000 -12.729700 24.328600 0.000019 0.000005 1.372920 2.976370 -24.774700 22.291600 -0.000001 0.000005 6.991400 5.478820 -5.704600 12.994500 -0.242716 -4.980390 88.034600 6.561150 -73.284000 -5.348130 -0.000001 -0.000004 -64.084700 40.767300 -16.027100 -24.328900 0.000322 -0.000009 1.929300 4.980360 -21.223700 -22.291500 -0.000108 -0.000004 6.951670 5.307580 -0.137323 -2.192480 -6.469440 -0.000000 -175.567000 -6.939980 -1.687170 39.081100 -0.000007 -0.000012 -0.113981 0.264289 23.329400 40.985400 -0.000006 -0.000013 -0.382154 2.655290 -67.955000 11.754300 -0.000000 0.000003 -0.000053 -0.000599 -16.600800 -2.192510 6.469440 -0.000001 179.142000 15.484400 -178.230000 -39.081100 -0.002282 -0.040193 -0.012799 0.045579 19.478300 -40.985400 0.000008 0.000006 4.146260 6.247120 -67.814200 -11.754300 -0.000006 -0.000006 -0.004887 -0.060363 -19.029000
0.000000 0.000000 0.000000 0.000000 0.000000 -0.000000 -0.673905 92.052800 0.889319 88.144800 -0.768215 3.882740 15.735700 0.000005 -0.000001 83.102400 85.435600 -82.582100 8.984550 -0.406207 -0.000000 1.302330 -1.125170 1.052560 16.377300 -0.000001 -0.000001 2.056510 -2.440200 0.765026 6.456720 -0.000001 -0.000000 4.877300 -2.341810 -1.041190 12.994200 -0.242716 4.980390 -90.284800 0.924294 -72.873600 5.348090 -0.000007 -0.000001 -69.673800 32.380000 -11.443400 24.328600 0.000019 0.000005 0.777781 1.490090 -27.597700 22.291600 -0.000001 0.000005 6.906940 5.499300 -6.505720 12.994500 -0.242716 -4.980390 87.910600 6.914770 -73.141300 -5.348130 -0.000001 -0.000004 -62.059900 40.525800 -16.810400 -24.328900 0.000322 -0.000009 1.713290 3.705990 -24.850900 -22.291500 -0.000108 -0.000004 4.379660 5.290500 0.337735 -2.192480 -6.469440 -0.000000 -175.560000 -6.926450 -1.681420 39.081100 -0.000007 -0.000012 -0.114987 0.266364 23.349600 40.985400 -0.000006 -0.000013 -0.379039 2.662640 -67.943100 11.754300 -0.000000 0.000003 -0.000046 -0.000530 -16.598100 -2.192510 6.469440 -0.000001 179.162000 15.443100 -178.244000 -39.081100 -0.002282 -0.040193 -0.010270 0.038332 19.523500 -40.985400 0.000008 0.000006 4.219700 6.180390 -67.817900 -11.754300 -0.000006 -0.000006 -0.004917 -0.060659 -19.041100
0.000000 0.000000 0.000000 0.000000 0.000000 -0.000000 -0.680128 92.055000 0.818553 88.160900 -0.755954 3.875270 15.735700 0.000005 -0.000001 82.561100 85.415100 -82.046200 8.984550 -0.406207 -0.000000 1.332500 -1.215520 1.043160 16.377300 -0.000001 -0.000001 2.001890 -2.505450 0.832719 6.456720 -0.000001 -0.000000 4.634150 -2.238130 -1.054460 12.994200 -0.242716 4.980390 -90.408000 1.309680 -72.694000 5.348090 -0.000007 -0.000001 -68.872200 28.484900 -11.444400 24.328600 0.000019 0.000005 0.150704 0.246829 -31.347400 22.291600 -0.000001 0.000005 7.601730 5.511390 -6.998020 12.994500 -0.242716 -4.980390 87.780100 7.168520 -72.743000 -5.348130 -0.000001 -0.000004 -59.176800 39.639900 -18.446200 -24.328900 0.000322 -0.000009 2.007290 3.531640 -29.646900 -22.291500 -0.000108 -0.000004 2.143260 5.300080 0.067631 -2.192480 -6.469440 -0.000000 -175.569000 -6.982790 -1.760260 39.081100 -0.000007 -0.000012 -0.114129 0.263991 23.380000 40.985400 -0.000006 -0.000013 -0.373342 2.703430 -67.900800 11.754300 -0.000000 0.000003 -0.000048 -0.000550 -16.598900 -2.192510 6.469440 -0.000001 179.171000 15.386400 -178.331000 -39.081100 -0.002282 -0.040193 -0.012172 0.043566 19.578200 -40.985400 0.000008 0.000006 4.175990 6.139060 -67.791000 -11.754300 -0.000006 -0.000006 -0.004934 -0.060828 -19.048000
0.000000 0.000000 0.000000 0.000000 0.000000 -0.000000 -0.690850 92.059700 0.737325 88.159500 -0.749627 3.913420 15.735700 0.000005 -0.000001 82.376800 85.424300 -81.871100 8.984550 -0.406207 -0.000000 1.310610 -1.241920 1.024700 16.377300 -0.000001 -0.000001 2.230340 -2.577570 0.892710 6.456720 -0.000001 -0.000000 4.418350 -2.305260 -0.956122 12.994200 -0.242716 4.980390 -90.436000 1.378170 -72.443600 5.348090 -0.000007 -0.000001 -67.269700 24.291400 -12.854300 24.328600 0.000019 0.000005 0.964345 1.356860 -35.389300 22.291600 -0.000001 0.000005 9.166620 5.524170 -7.529380 12.994500 -0.242716 -4.980390 87.734600 7.119860 -72.298500 -5.348130 -0.000001 -0.000004 -56.034700 37.615800 -20.623700 -24.328900 0.000322 -0.000009 2.893880 4.099560 -35.263000 -22.291500 -0.000108 -0.000004 1.967940 5.317610 -0.425584 -2.192480 -6.469440 -0.000000 -175.539000 -7.095960 -1.785440 39.081100 -0.000007 -0.000012 -0.114570 0.264735 23.401600 40.985400 -0.000006 -0.000013 -0.354309 2.821970 -67.855400 11.754300 -0.000000 0.000003 -0.000047 -0.000534 -16.598300 -2.192510 6.469440 -0.000001 179.178000 15.378100 -178.367000 -39.081100 -0.002282 -0.040193 -0.014303 0.049485 19.604400 -40.985400 0.000008 0.000006 4.095700 6.137250 -67.732500 -11.754300 -0.000006 -0.000006 -0.004979 -0.061261 -19.065600
0.000000 0.000000 0.000000 0.000000 0.000000 -0.000000 -0.697529 92.072200 0.620914 88.125300 -0.696187 3.971330 15.735700 0.000005 -0.000001 82.056400 85.443100 -81.545500 8.984550 -0.406207 -0.000000 1.266550 -1.287890 1.035330 16.377300 -0.000001 -0.000001 2.451550 -2.627350 0.956809 6.456720 -0.000001 -0.000000 4.452400 -2.434820 -0.890612 12.994200 -0.242716 4.980390 -90.388700 1.221920 -72.350700 5.348090 -0.000007 -0.000001 -65.225000 19.419300 -15.162500 24.328600 0.000019 0.000005 1.399420 1.686440 -39.690200 22.291600 -0.000001 0.000005 11.005700 5.541240 -8.294840 12.994500 -0.242716 -4.980390 87.793800 6.844990 -72.087600 -5.348130 -0.000001 -0.000004 -52.772500 34.151500 -23.132300 -24.328900 0.000322 -0.000009 4.078870 4.619150 -41.525000 -22.291500 -0.000108 -0.000004 4.009070 5.325140 -0.642964 -2.192480 -6.469440 -0.000000 -175.515000 -7.038180 -1.843700 39.081100 -0.000007 -0.000012 -0.112878 0.260391 23.436500 40.985400 -0.000006 -0.000013 -0.357376 2.786430 -67.778100 11.754300 -0.000000 0.000003 -0.000049 -0.000555 -16.599100 -2.192510 6.469440 -0.000001 179.223000 15.433600 -178.372000 -39.081100 -0.002282 -0.040193 -0.014075 0.048919 19.577000 -40.985400 0.000008 0.000006 4.112810 6.142760 -67.645800 -11.754300 -0.000006 -0.000006 -0.004867 -0.060177 -19.021500
0.000000 0.000000 0.000000 0.000000 0.000000 -0.000000 -0.702463 92.083000 0.499971 88.135000 -0.727942 4.053930 15.735700 0.000005 -0.000001 81.925600 85.464800 -81.422600 8.984550 -0.406207 -0.000000 1.220630 -1.302160 1.018950 16.377300 -0.000001 -0.000001 2.637630 -2.595150 0.999285 6.456720 -0.000001 -0.000000 4.486090 -2.440690 -0.808321 12.994200 -0.242716 4.980390 -90.299900 0.941575 -72.332600 5.348090 -0.000007 -0.000001 -63.010000 13.898800 -18.107600 24.328600 0.000019 0.000005 1.602300 1.634200 -44.440100 22.291600 -0.000001 0.000005 13.533700 5.550510 -8.726120 12.994500 -0.242716 -4.980390 87.869700 6.551240 -71.942300 -5.348130 -0.000001 -0.000004 -49.366200 29.260700 -26.213300 -24.328900 0.000322 -0.000009 5.628120 5.136440 -47.744000 -22.291500 -0.000108 -0.000004 6.231580 5.326080 -0.672456 -2.192480 -6.469440 -0.000000 -175.523000 -6.963560 -1.827460 39.081100 -0.000007 -0.000012 -0.115469 0.266548 23.422400 40.985400 -0.000006 -0.000013 -0.372846 2.731990 -67.698400 11.754300 -0.000000 0.000003 -0.000046 -0.000524 -16.597900 -2.192510 6.469440 -0.000001 179.217000 15.402900 -178.413000 -39.081100 -0.002282 -0.040193 -0.014473 0.049900 19.626700 -40.985400 0.000008 0.000006 4.092030 6.141210 -67.569800 -11.754300 -0.000006 -0.000006 -0.005085 -0.062287 -19.107500
0.000000 0.000000 0.000000 0.000000 0.000000 -0.000000 -0.707357 92.094700 0.372591 88.110800 -0.765451 4.152550 15.735700 0.000005 -0.000001 81.809300 85.487900 -81.290800 8.984550 -0.406207 -0.000000 1.172720 -1.314930 1.049550 16.377300 -0.000001 -0.000001 2.861740 -2.534930 1.108090 6.456720 -0.000001 -0.000000 4.293750 -2.360910 -0.866809 12.994200 -0.242716 4.980390 -90.192900 0.608874 -72.422300 5.348090 -0.000007 -0.000001 -61.022500 7.818270 -21.420500 24.328600 0.000019 0.000005 2.676560 2.285600 -49.516000 22.291600 -0.000001 0.000005 17.220200 5.568890 -9.612710 12.994500 -0.242716 -4.980390 87.985500 6.160510 -71.852200 -5.348130 -0.000001 -0.000004 -46.468600 22.922600 -29.498000 -24.328900 0.000322 -0.000009 8.003600 5.884440 -53.895700 -22.291500 -0.000108 -0.000004 8.571280 5.314820 -0.349607 -2.192480 -6.469440 -0.000000 -175.501000 -7.021260 -1.840430 39.081100 -0.000007 -0.000012 -0.111496 0.256954 23.456700 40.985400 -0.000006 -0.000013 -0.364595 2.717320 -67.617800 11.754300 -0.000000 0.000003 -0.000050 -0.000561 -16.599400 -2.192510 6.469440 -0.000001 179.253000 15.400000 -178.415000 -39.081100 -0.002282 -0.040193 -0.012600 0.044597 19.648100 -40.985400 0.000008 0.000006 4.201430 6.135880 -67.507400 -11.754300 -0.000006 -0.000006 -0.004796 -0.059480 -18.993100
